# xmcd CD database file
#
# Track frame offsets:
#	180
#	14811
#	27389
#	38617
#	50395
#	68451
#	78861
#	90845
#	109932
#	121980
#	144977
#	159813
#	170777
#	186860
#	202593
#	220233
#	237185
#	254994
#	275902
#	286961
#	303922
#
# Disc length: 4314 seconds
#
# Revision: 0
# Processed by: cddbd v1.4PL0 Copyright (c) Steve Scherf et al.
# Submitted via: CDex 1.50beta10
#
DISCID=2110d815
DTITLE=Big Maybelle - The Last of Big Maybelle
DYEAR=1996
DGENRE=Blues
TTITLE0=Winnie Widow Brown
TTITLE1=See See Rider
TTITLE2=I'm Lost
TTITLE3=No Better for You
TTITLE4=Big Sweet Daddy
TTITLE5=Cold, Cold, Heart
TTITLE6=Blame it on Your Love
TTITLE7=Long Long Journey
TTITLE8=I Know
TTITLE9=Your Turn to Cry
TTITLE10=How it Lies, How it Lies, How it Lies
TTITLE11=My Mother's Eyes
TTITLE12=Old Love Never Dies
TTITLE13=It's Been Raining in my Heart
TTITLE14=What a Difference a Day Makes
TTITLE15=Gloomy Sunday
TTITLE16=Why was I Born
TTITLE17=The Masquerade is Over
TTITLE18=Careless Love
TTITLE19=Maybelle Sings the Blues
TTITLE20=This Bitter Earth
EXTD=YEAR: 1996
EXTT0=
EXTT1=
EXTT2=
EXTT3=
EXTT4=
EXTT5=
EXTT6=
EXTT7=
EXTT8=
EXTT9=
EXTT10=
EXTT11=
EXTT12=
EXTT13=
EXTT14=
EXTT15=
EXTT16=
EXTT17=
EXTT18=
EXTT19=
EXTT20=
PLAYORDER=
